<svg width="10" height="6" viewBox="0 0 10 6" fill="none" xmlns="http://www.w3.org/2000/svg">
<path d="M5.0013 3.92503L1.91378 0.837511C1.68598 0.609705 1.31663 0.609705 1.08882 0.837511C0.861017 1.06532 0.861017 1.43466 1.08882 1.66247L4.58882 5.16247C4.81663 5.39027 5.18598 5.39027 5.41378 5.16247L8.91378 1.66247C9.14159 1.43466 9.14159 1.06532 8.91378 0.837511C8.68598 0.609705 8.31663 0.609705 8.08882 0.837511L5.0013 3.92503Z" fill="#646464"/>
<mask id="mask0_226_2784" style="mask-type:luminance" maskUnits="userSpaceOnUse" x="0" y="0" width="10" height="6">
<path d="M5.0013 3.92503L1.91378 0.837511C1.68598 0.609705 1.31663 0.609705 1.08882 0.837511C0.861017 1.06532 0.861017 1.43466 1.08882 1.66247L4.58882 5.16247C4.81663 5.39027 5.18598 5.39027 5.41378 5.16247L8.91378 1.66247C9.14159 1.43466 9.14159 1.06532 8.91378 0.837511C8.68598 0.609705 8.31663 0.609705 8.08882 0.837511L5.0013 3.92503Z" fill="white"/>
</mask>
<g mask="url(#mask0_226_2784)">
</g>
</svg>
